<svg width="390" height="6200" viewBox="0 0 390 6200" fill="none" xmlns="http://www.w3.org/2000/svg">
  <rect width="390" height="6200" fill="#000"/>
  <rect x="0" y="0" width="390" height="68" fill="rgba(5,5,5,.45)"/>
  <line x1="0" y1="68.5" x2="390" y2="68.5" stroke="rgba(255,255,255,.1)"/>
  <text x="72" y="43" fill="#fff" font-size="30" font-family="Arial" font-style="italic">НПО Мелодия</text>

  <rect x="0" y="68" width="390" height="620" fill="rgba(255,255,255,.03)"/>
  <text x="195" y="390" fill="rgba(255,255,255,.72)" font-size="14" text-anchor="middle" font-family="Arial">INTRO IMAGE</text>

  <text x="14" y="740" fill="#fff" font-size="24" font-family="Arial" font-style="italic">АФИША</text>

  <!-- events 2-col -->
  <g transform="translate(14 770)">
    <rect width="176" height="286" rx="12" fill="rgba(8,8,8,.42)" stroke="rgba(255,255,255,.1)"/>
    <rect x="0" y="0" width="176" height="200" fill="rgba(255,255,255,.03)"/>
    <text x="8" y="224" fill="rgba(255,255,255,.72)" font-size="11" font-family="Arial">09.03.2026 17:00</text>
    <text x="8" y="246" fill="#fff" font-size="14" font-family="Arial" font-style="italic">9 Марта — Первый</text>
  </g>
  <g transform="translate(200 770)">
    <rect width="176" height="286" rx="12" fill="rgba(8,8,8,.42)" stroke="rgba(255,255,255,.1)"/>
    <rect x="0" y="0" width="176" height="200" fill="rgba(255,255,255,.03)"/>
    <text x="8" y="224" fill="rgba(255,255,255,.72)" font-size="11" font-family="Arial">08.03.2026 21:30</text>
    <text x="8" y="246" fill="#fff" font-size="14" font-family="Arial" font-style="italic">8 Марта — Первый</text>
  </g>

  <g transform="translate(14 1064)">
    <rect width="176" height="286" rx="12" fill="rgba(8,8,8,.42)" stroke="rgba(255,255,255,.1)"/>
    <rect x="0" y="0" width="176" height="200" fill="rgba(255,255,255,.03)"/>
    <text x="8" y="224" fill="rgba(255,255,255,.72)" font-size="11" font-family="Arial">28.02.2026 20:00</text>
    <text x="8" y="246" fill="#fff" font-size="14" font-family="Arial" font-style="italic">Pirate Jet</text>
  </g>
  <g transform="translate(200 1064)">
    <rect width="176" height="286" rx="12" fill="rgba(8,8,8,.42)" stroke="rgba(255,255,255,.1)"/>
    <rect x="0" y="0" width="176" height="200" fill="rgba(255,255,255,.03)"/>
    <text x="8" y="224" fill="rgba(255,255,255,.72)" font-size="11" font-family="Arial">20.02.2026 22:00</text>
    <text x="8" y="246" fill="#fff" font-size="14" font-family="Arial" font-style="italic">Cliche</text>
  </g>

  <text x="14" y="1420" fill="#fff" font-size="24" font-family="Arial" font-style="italic">Календарь</text>
  <rect x="14" y="1448" width="362" height="410" rx="12" fill="rgba(8,8,8,.42)" stroke="rgba(255,255,255,.1)"/>
  <rect x="14" y="1870" width="362" height="420" rx="12" fill="rgba(8,8,8,.42)" stroke="rgba(255,255,255,.1)"/>

  <text x="14" y="2360" fill="#fff" font-size="24" font-family="Arial" font-style="italic">Артисты</text>
  <rect x="14" y="2388" width="362" height="540" rx="12" fill="rgba(8,8,8,.42)" stroke="rgba(255,255,255,.1)"/>

  <text x="14" y="3000" fill="#fff" font-size="24" font-family="Arial" font-style="italic">Релизы</text>
  <rect x="14" y="3028" width="362" height="540" rx="12" fill="rgba(8,8,8,.42)" stroke="rgba(255,255,255,.1)"/>

  <text x="14" y="3640" fill="#fff" font-size="24" font-family="Arial" font-style="italic">Трансляции</text>
  <rect x="14" y="3668" width="362" height="440" rx="12" fill="rgba(8,8,8,.42)" stroke="rgba(255,255,255,.1)"/>
  <rect x="14" y="4120" width="362" height="440" rx="12" fill="rgba(8,8,8,.42)" stroke="rgba(255,255,255,.1)"/>

  <text x="14" y="4630" fill="#fff" font-size="24" font-family="Arial" font-style="italic">Мерч</text>
  <rect x="14" y="4658" width="176" height="250" rx="12" fill="rgba(8,8,8,.42)" stroke="rgba(255,255,255,.1)"/>
  <rect x="200" y="4658" width="176" height="250" rx="12" fill="rgba(8,8,8,.42)" stroke="rgba(255,255,255,.1)"/>
  <rect x="14" y="4918" width="176" height="250" rx="12" fill="rgba(8,8,8,.42)" stroke="rgba(255,255,255,.1)"/>
  <rect x="200" y="4918" width="176" height="250" rx="12" fill="rgba(8,8,8,.42)" stroke="rgba(255,255,255,.1)"/>

  <text x="14" y="5240" fill="#fff" font-size="24" font-family="Arial" font-style="italic">Контакты</text>
  <rect x="14" y="5268" width="362" height="300" rx="12" fill="rgba(8,8,8,.42)" stroke="rgba(255,255,255,.1)"/>

  <text x="14" y="6150" fill="rgba(255,255,255,.72)" font-size="14" font-family="Arial">Figma-ready SVG frame: Mobile 390</text>
</svg>
