<svg width="1440" height="5400" viewBox="0 0 1440 5400" fill="none" xmlns="http://www.w3.org/2000/svg">
  <rect width="1440" height="5400" fill="#000"/>
  <rect x="0" y="0" width="1440" height="78" fill="rgba(5,5,5,.45)"/>
  <line x1="0" y1="78.5" x2="1440" y2="78.5" stroke="rgba(255,255,255,.1)"/>
  <text x="130" y="50" fill="#fff" font-size="44" font-family="Arial" font-style="italic">НПО Мелодия</text>
  <text x="720" y="48" fill="rgba(255,255,255,.72)" font-size="13" text-anchor="middle" font-family="Arial">Ивенты   Календарь   Артисты   Релизы   Трансляции   Мерч   Контакты</text>

  <rect x="0" y="78" width="1440" height="900" fill="rgba(255,255,255,.03)"/>
  <text x="720" y="530" fill="rgba(255,255,255,.72)" font-size="24" text-anchor="middle" font-family="Arial">INTRO IMAGE (npo_print_source.png)</text>

  <text x="130" y="1070" fill="#fff" font-size="32" font-family="Arial" font-style="italic">АФИША</text>

  <!-- events grid -->
  <g transform="translate(130 1110)">
    <rect width="279" height="430" rx="18" fill="rgba(8,8,8,.42)" stroke="rgba(255,255,255,.1)"/>
    <rect x="0" y="0" width="279" height="340" fill="rgba(255,255,255,.03)"/>
    <text x="14" y="372" fill="rgba(255,255,255,.72)" font-size="16" font-family="Arial">09.03.2026 17:00</text>
    <text x="14" y="398" fill="#fff" font-size="24" font-family="Arial" font-style="italic">9 Марта — Первый уикенд</text>
  </g>
  <g transform="translate(423 1110)">
    <rect width="279" height="430" rx="18" fill="rgba(8,8,8,.42)" stroke="rgba(255,255,255,.1)"/>
    <rect x="0" y="0" width="279" height="340" fill="rgba(255,255,255,.03)"/>
    <text x="14" y="372" fill="rgba(255,255,255,.72)" font-size="16" font-family="Arial">08.03.2026 21:30</text>
    <text x="14" y="398" fill="#fff" font-size="24" font-family="Arial" font-style="italic">8 Марта — Первый уикенд</text>
  </g>
  <g transform="translate(716 1110)">
    <rect width="279" height="430" rx="18" fill="rgba(8,8,8,.42)" stroke="rgba(255,255,255,.1)"/>
    <rect x="0" y="0" width="279" height="340" fill="rgba(255,255,255,.03)"/>
    <text x="14" y="372" fill="rgba(255,255,255,.72)" font-size="16" font-family="Arial">28.02.2026 20:00</text>
    <text x="14" y="398" fill="#fff" font-size="24" font-family="Arial" font-style="italic">Pirate Jet</text>
  </g>
  <g transform="translate(1009 1110)">
    <rect width="279" height="430" rx="18" fill="rgba(8,8,8,.42)" stroke="rgba(255,255,255,.1)"/>
    <rect x="0" y="0" width="279" height="340" fill="rgba(255,255,255,.03)"/>
    <text x="14" y="372" fill="rgba(255,255,255,.72)" font-size="16" font-family="Arial">20.02.2026 22:00</text>
    <text x="14" y="398" fill="#fff" font-size="24" font-family="Arial" font-style="italic">Cliche</text>
  </g>

  <text x="130" y="1650" fill="#fff" font-size="32" font-family="Arial" font-style="italic">Календарь</text>
  <rect x="130" y="1680" width="760" height="540" rx="18" fill="rgba(8,8,8,.42)" stroke="rgba(255,255,255,.1)"/>
  <rect x="904" y="1680" width="384" height="540" rx="18" fill="rgba(8,8,8,.42)" stroke="rgba(255,255,255,.1)"/>

  <text x="130" y="2310" fill="#fff" font-size="32" font-family="Arial" font-style="italic">Артисты &amp; букинг</text>
  <rect x="130" y="2340" width="1158" height="470" rx="18" fill="rgba(8,8,8,.42)" stroke="rgba(255,255,255,.1)"/>

  <text x="130" y="2900" fill="#fff" font-size="32" font-family="Arial" font-style="italic">Релизы</text>
  <rect x="130" y="2930" width="1158" height="470" rx="18" fill="rgba(8,8,8,.42)" stroke="rgba(255,255,255,.1)"/>

  <text x="130" y="3490" fill="#fff" font-size="32" font-family="Arial" font-style="italic">Трансляции</text>
  <rect x="130" y="3520" width="572" height="520" rx="18" fill="rgba(8,8,8,.42)" stroke="rgba(255,255,255,.1)"/>
  <rect x="716" y="3520" width="572" height="520" rx="18" fill="rgba(8,8,8,.42)" stroke="rgba(255,255,255,.1)"/>

  <text x="130" y="4130" fill="#fff" font-size="32" font-family="Arial" font-style="italic">Мерч</text>
  <rect x="130" y="4160" width="279" height="360" rx="18" fill="rgba(8,8,8,.42)" stroke="rgba(255,255,255,.1)"/>
  <rect x="423" y="4160" width="279" height="360" rx="18" fill="rgba(8,8,8,.42)" stroke="rgba(255,255,255,.1)"/>
  <rect x="716" y="4160" width="279" height="360" rx="18" fill="rgba(8,8,8,.42)" stroke="rgba(255,255,255,.1)"/>
  <rect x="1009" y="4160" width="279" height="360" rx="18" fill="rgba(8,8,8,.42)" stroke="rgba(255,255,255,.1)"/>

  <text x="130" y="4620" fill="#fff" font-size="32" font-family="Arial" font-style="italic">Контакты</text>
  <rect x="130" y="4650" width="1158" height="330" rx="18" fill="rgba(8,8,8,.42)" stroke="rgba(255,255,255,.1)"/>

  <text x="130" y="5120" fill="rgba(255,255,255,.72)" font-size="18" font-family="Arial">Figma-ready SVG frame: Desktop 1440</text>
</svg>
